<svg width="260" height="462" viewBox="0 0 260 462" fill="none" xmlns="http://www.w3.org/2000/svg">
  <!-- Background -->
  <rect width="260" height="462" fill="#F9FAFB"/>

  <!-- Status Bar -->
  <rect width="260" height="44" fill="#3B82F6"/>
  <text x="130" y="28" font-family="-apple-system, sans-serif" font-size="12" fill="white" text-anchor="middle" font-weight="600">9:41</text>

  <!-- Header -->
  <rect y="44" width="260" height="60" fill="white"/>
  <text x="20" y="82" font-family="-apple-system, sans-serif" font-size="20" fill="#111827" font-weight="700">Dashboard</text>

  <!-- Content Cards -->
  <rect x="20" y="120" width="220" height="100" rx="12" fill="white"/>
  <rect x="30" y="135" width="80" height="12" rx="6" fill="#3B82F6"/>
  <rect x="30" y="155" width="140" height="8" rx="4" fill="#E5E7EB"/>
  <rect x="30" y="170" width="100" height="8" rx="4" fill="#E5E7EB"/>
  <rect x="30" y="190" width="60" height="20" rx="10" fill="#DBEAFE"/>
  <text x="60" y="204" font-family="-apple-system, sans-serif" font-size="10" fill="#3B82F6" text-anchor="middle" font-weight="600">Active</text>

  <rect x="20" y="235" width="220" height="100" rx="12" fill="white"/>
  <rect x="30" y="250" width="100" height="12" rx="6" fill="#10B981"/>
  <rect x="30" y="270" width="160" height="8" rx="4" fill="#E5E7EB"/>
  <rect x="30" y="285" width="120" height="8" rx="4" fill="#E5E7EB"/>
  <rect x="30" y="305" width="70" height="20" rx="10" fill="#D1FAE5"/>
  <text x="65" y="319" font-family="-apple-system, sans-serif" font-size="10" fill="#10B981" text-anchor="middle" font-weight="600">Complete</text>

  <rect x="20" y="350" width="220" height="100" rx="12" fill="white"/>
  <rect x="30" y="365" width="90" height="12" rx="6" fill="#F59E0B"/>
  <rect x="30" y="385" width="150" height="8" rx="4" fill="#E5E7EB"/>
  <rect x="30" y="400" width="110" height="8" rx="4" fill="#E5E7EB"/>
  <rect x="30" y="420" width="65" height="20" rx="10" fill="#FEF3C7"/>
  <text x="62" y="434" font-family="-apple-system, sans-serif" font-size="10" fill="#F59E0B" text-anchor="middle" font-weight="600">Pending</text>

  <!-- Screenshot Label -->
  <text x="130" y="25" font-family="-apple-system, sans-serif" font-size="8" fill="white" text-anchor="middle" opacity="0.7">Screenshot 1</text>
</svg>
