<svg width="260" height="462" viewBox="0 0 260 462" fill="none" xmlns="http://www.w3.org/2000/svg">
  <!-- Background -->
  <rect width="260" height="462" fill="#F9FAFB"/>

  <!-- Status Bar -->
  <rect width="260" height="44" fill="#8B5CF6"/>
  <text x="130" y="28" font-family="-apple-system, sans-serif" font-size="12" fill="white" text-anchor="middle" font-weight="600">9:41</text>

  <!-- Header -->
  <rect y="44" width="260" height="60" fill="white"/>
  <text x="20" y="82" font-family="-apple-system, sans-serif" font-size="20" fill="#111827" font-weight="700">Analytics</text>

  <!-- Chart Area -->
  <rect x="20" y="120" width="220" height="180" rx="12" fill="white"/>
  <text x="130" y="145" font-family="-apple-system, sans-serif" font-size="14" fill="#6B7280" text-anchor="middle" font-weight="600">Weekly Performance</text>

  <!-- Bar Chart -->
  <rect x="40" y="240" width="20" height="40" rx="4" fill="#3B82F6"/>
  <rect x="70" y="220" width="20" height="60" rx="4" fill="#3B82F6"/>
  <rect x="100" y="200" width="20" height="80" rx="4" fill="#8B5CF6"/>
  <rect x="130" y="190" width="20" height="90" rx="4" fill="#8B5CF6"/>
  <rect x="160" y="210" width="20" height="70" rx="4" fill="#3B82F6"/>
  <rect x="190" y="230" width="20" height="50" rx="4" fill="#3B82F6"/>

  <!-- Stats Cards -->
  <rect x="20" y="315" width="105" height="60" rx="12" fill="#DBEAFE"/>
  <text x="72.5" y="338" font-family="-apple-system, sans-serif" font-size="10" fill="#3B82F6" text-anchor="middle">Total Users</text>
  <text x="72.5" y="358" font-family="-apple-system, sans-serif" font-size="20" fill="#1E40AF" text-anchor="middle" font-weight="700">1.2K</text>

  <rect x="135" y="315" width="105" height="60" rx="12" fill="#DDD6FE"/>
  <text x="187.5" y="338" font-family="-apple-system, sans-serif" font-size="10" fill="#8B5CF6" text-anchor="middle">Engagement</text>
  <text x="187.5" y="358" font-family="-apple-system, sans-serif" font-size="20" fill="#6D28D9" text-anchor="middle" font-weight="700">87%</text>

  <!-- List Items -->
  <rect x="20" y="390" width="220" height="50" rx="8" fill="white"/>
  <circle cx="35" cy="415" r="8" fill="#10B981"/>
  <rect x="50" y="408" width="100" height="8" rx="4" fill="#E5E7EB"/>
  <rect x="50" y="420" width="70" height="6" rx="3" fill="#F3F4F6"/>

  <!-- Screenshot Label -->
  <text x="130" y="25" font-family="-apple-system, sans-serif" font-size="8" fill="white" text-anchor="middle" opacity="0.7">Screenshot 2</text>
</svg>
