<svg width="260" height="462" viewBox="0 0 260 462" fill="none" xmlns="http://www.w3.org/2000/svg">
  <!-- Background Gradient -->
  <defs>
    <linearGradient id="bg" x1="0%" y1="0%" x2="0%" y2="100%">
      <stop offset="0%" style="stop-color:#3B82F6;stop-opacity:1" />
      <stop offset="100%" style="stop-color:#8B5CF6;stop-opacity:1" />
    </linearGradient>
  </defs>

  <rect width="260" height="462" fill="url(#bg)"/>

  <!-- Status Bar -->
  <text x="130" y="28" font-family="-apple-system, sans-serif" font-size="12" fill="white" text-anchor="middle" font-weight="600">9:41</text>

  <!-- Profile Card -->
  <rect x="20" y="80" width="220" height="140" rx="20" fill="white" opacity="0.95"/>
  <circle cx="130" cy="130" r="30" fill="#E5E7EB"/>
  <circle cx="130" cy="125" r="12" fill="#9CA3AF"/>
  <path d="M 110 145 Q 130 155 150 145" stroke="#9CA3AF" stroke-width="3" fill="none" stroke-linecap="round"/>

  <text x="130" y="175" font-family="-apple-system, sans-serif" font-size="16" fill="#111827" text-anchor="middle" font-weight="700">John Doe</text>
  <text x="130" y="195" font-family="-apple-system, sans-serif" font-size="12" fill="#6B7280" text-anchor="middle">john@example.com</text>

  <!-- Menu Items -->
  <rect x="20" y="240" width="220" height="50" rx="12" fill="white" opacity="0.95"/>
  <rect x="35" y="257" width="16" height="16" rx="4" fill="#3B82F6"/>
  <rect x="60" y="260" width="80" height="10" rx="5" fill="#E5E7EB"/>
  <path d="M 225 265 L 220 265 L 222.5 262.5 Z" fill="#9CA3AF"/>

  <rect x="20" y="305" width="220" height="50" rx="12" fill="white" opacity="0.95"/>
  <rect x="35" y="322" width="16" height="16" rx="4" fill="#10B981"/>
  <rect x="60" y="325" width="90" height="10" rx="5" fill="#E5E7EB"/>
  <path d="M 225 330 L 220 330 L 222.5 327.5 Z" fill="#9CA3AF"/>

  <rect x="20" y="370" width="220" height="50" rx="12" fill="white" opacity="0.95"/>
  <rect x="35" y="387" width="16" height="16" rx="4" fill="#F59E0B"/>
  <rect x="60" y="390" width="70" height="10" rx="5" fill="#E5E7EB"/>
  <path d="M 225 395 L 220 395 L 222.5 392.5 Z" fill="#9CA3AF"/>

  <!-- Screenshot Label -->
  <text x="130" y="25" font-family="-apple-system, sans-serif" font-size="8" fill="white" text-anchor="middle" opacity="0.7">Screenshot 3</text>
</svg>
