<svg width="260" height="462" viewBox="0 0 260 462" fill="none" xmlns="http://www.w3.org/2000/svg">
  <!-- Background -->
  <rect width="260" height="462" fill="#F3F4F6"/>

  <!-- Status Bar -->
  <rect width="260" height="44" fill="#10B981"/>
  <text x="130" y="28" font-family="-apple-system, sans-serif" font-size="12" fill="white" text-anchor="middle" font-weight="600">9:41</text>

  <!-- Header -->
  <rect y="44" width="260" height="60" fill="white"/>
  <text x="20" y="82" font-family="-apple-system, sans-serif" font-size="20" fill="#111827" font-weight="700">Settings</text>

  <!-- Settings Groups -->
  <text x="20" y="125" font-family="-apple-system, sans-serif" font-size="12" fill="#6B7280" font-weight="600">ACCOUNT</text>

  <rect x="20" y="135" width="220" height="110" rx="12" fill="white"/>
  <rect x="30" y="150" width="30" height="30" rx="8" fill="#DBEAFE"/>
  <text x="45" y="172" font-family="-apple-system, sans-serif" font-size="18" text-anchor="middle">👤</text>
  <rect x="70" y="157" width="80" height="10" rx="5" fill="#E5E7EB"/>
  <rect x="70" y="172" width="60" height="8" rx="4" fill="#F3F4F6"/>

  <line x1="30" y1="195" x2="230" y2="195" stroke="#E5E7EB" stroke-width="1"/>

  <rect x="30" y="205" width="30" height="30" rx="8" fill="#D1FAE5"/>
  <text x="45" y="227" font-family="-apple-system, sans-serif" font-size="18" text-anchor="middle">🔔</text>
  <rect x="70" y="212" width="90" height="10" rx="5" fill="#E5E7EB"/>
  <rect x="70" y="227" width="50" height="8" rx="4" fill="#F3F4F6"/>

  <!-- Second Group -->
  <text x="20" y="275" font-family="-apple-system, sans-serif" font-size="12" fill="#6B7280" font-weight="600">PREFERENCES</text>

  <rect x="20" y="285" width="220" height="110" rx="12" fill="white"/>
  <rect x="30" y="300" width="30" height="30" rx="8" fill="#FEF3C7"/>
  <text x="45" y="322" font-family="-apple-system, sans-serif" font-size="18" text-anchor="middle">🌙</text>
  <rect x="70" y="307" width="70" height="10" rx="5" fill="#E5E7EB"/>
  <rect x="70" y="322" width="40" height="8" rx="4" fill="#F3F4F6"/>
  <rect x="200" y="310" width="30" height="16" rx="8" fill="#10B981"/>
  <circle cx="218" cy="318" r="6" fill="white"/>

  <line x1="30" y1="345" x2="230" y2="345" stroke="#E5E7EB" stroke-width="1"/>

  <rect x="30" y="355" width="30" height="30" rx="8" fill="#DDD6FE"/>
  <text x="45" y="377" font-family="-apple-system, sans-serif" font-size="18" text-anchor="middle">🔒</text>
  <rect x="70" y="362" width="60" height="10" rx="5" fill="#E5E7EB"/>
  <rect x="70" y="377" width="70" height="8" rx="4" fill="#F3F4F6"/>

  <!-- Screenshot Label -->
  <text x="130" y="25" font-family="-apple-system, sans-serif" font-size="8" fill="white" text-anchor="middle" opacity="0.7">Screenshot 4</text>
</svg>
