<svg width="260" height="462" viewBox="0 0 260 462" fill="none" xmlns="http://www.w3.org/2000/svg">
  <!-- Dark Background -->
  <rect width="260" height="462" fill="#111827"/>

  <!-- Status Bar -->
  <text x="130" y="28" font-family="-apple-system, sans-serif" font-size="12" fill="white" text-anchor="middle" font-weight="600">9:41</text>

  <!-- Header -->
  <rect y="44" width="260" height="60" fill="#1F2937"/>
  <text x="20" y="82" font-family="-apple-system, sans-serif" font-size="20" fill="white" font-weight="700">Dark Mode</text>

  <!-- Feature Card 1 -->
  <rect x="20" y="120" width="220" height="90" rx="16" fill="#1F2937"/>
  <circle cx="45" cy="150" r="15" fill="#3B82F6"/>
  <text x="45" y="157" font-family="-apple-system, sans-serif" font-size="18" fill="white" text-anchor="middle">⚡</text>
  <rect x="70" y="142" width="100" height="10" rx="5" fill="#374151"/>
  <rect x="70" y="158" width="140" height="8" rx="4" fill="#374151"/>
  <rect x="70" y="172" width="90" height="8" rx="4" fill="#374151"/>
  <rect x="180" y="185" width="50" height="20" rx="10" fill="#1E40AF"/>
  <text x="205" y="199" font-family="-apple-system, sans-serif" font-size="10" fill="white" text-anchor="middle" font-weight="600">Enable</text>

  <!-- Feature Card 2 -->
  <rect x="20" y="225" width="220" height="90" rx="16" fill="#1F2937"/>
  <circle cx="45" cy="255" r="15" fill="#8B5CF6"/>
  <text x="45" y="262" font-family="-apple-system, sans-serif" font-size="18" fill="white" text-anchor="middle">🎨</text>
  <rect x="70" y="247" width="110" height="10" rx="5" fill="#374151"/>
  <rect x="70" y="263" width="130" height="8" rx="4" fill="#374151"/>
  <rect x="70" y="277" width="100" height="8" rx="4" fill="#374151"/>
  <rect x="180" y="290" width="50" height="20" rx="10" fill="#6D28D9"/>
  <text x="205" y="304" font-family="-apple-system, sans-serif" font-size="10" fill="white" text-anchor="middle" font-weight="600">Customize</text>

  <!-- Feature Card 3 -->
  <rect x="20" y="330" width="220" height="90" rx="16" fill="#1F2937"/>
  <circle cx="45" cy="360" r="15" fill="#10B981"/>
  <text x="45" y="367" font-family="-apple-system, sans-serif" font-size="18" fill="white" text-anchor="middle">✓</text>
  <rect x="70" y="352" width="90" height="10" rx="5" fill="#374151"/>
  <rect x="70" y="368" width="150" height="8" rx="4" fill="#374151"/>
  <rect x="70" y="382" width="80" height="8" rx="4" fill="#374151"/>
  <rect x="180" y="395" width="50" height="20" rx="10" fill="#047857"/>
  <text x="205" y="409" font-family="-apple-system, sans-serif" font-size="10" fill="white" text-anchor="middle" font-weight="600">Active</text>

  <!-- Screenshot Label -->
  <text x="130" y="25" font-family="-apple-system, sans-serif" font-size="8" fill="white" text-anchor="middle" opacity="0.7">Screenshot 5</text>
</svg>
